<svg width="26" height="26" viewBox="0 0 26 26" fill="none" xmlns="http://www.w3.org/2000/svg">
<path d="M23.1192 1.625H2.88082C2.5478 1.62513 2.22845 1.75749 1.99297 1.99297C1.75749 2.22845 1.62513 2.5478 1.625 2.88082V23.1192C1.62513 23.4522 1.75749 23.7715 1.99297 24.007C2.22845 24.2425 2.5478 24.3749 2.88082 24.375H13V15.4375H10.2807V12.1875H13V9.59766C13 6.65945 15.0379 5.05984 17.6627 5.05984C18.9186 5.05984 20.2693 5.1543 20.5832 5.19594V8.26465H18.492C17.064 8.26465 16.7918 8.94004 16.7918 9.93535V12.1875H20.1942L19.7498 15.4375H16.7918V24.375H23.1192C23.4522 24.3749 23.7715 24.2425 24.007 24.007C24.2425 23.7715 24.3749 23.4522 24.375 23.1192V2.88082C24.3749 2.5478 24.2425 2.22845 24.007 1.99297C23.7715 1.75749 23.4522 1.62513 23.1192 1.625Z" fill="#EE2625"/>
</svg>
