<svg width="80" height="80" viewBox="0 0 80 80" fill="none" xmlns="http://www.w3.org/2000/svg">
<path d="M6.25 75.0809H73.75C75.1307 75.0809 76.25 73.9616 76.25 72.5809V7.58093C76.25 6.20022 75.1307 5.08093 73.75 5.08093H6.25C4.86929 5.08093 3.75 6.20022 3.75 7.58093V72.5809C3.75 73.9616 4.86929 75.0809 6.25 75.0809Z" fill="#E9EEF2"/>
<path d="M76.25 7.58093V15.0809H3.75V7.58093C3.75 6.91789 4.01339 6.28201 4.48223 5.81317C4.95107 5.34432 5.58696 5.08093 6.25 5.08093H73.75C74.413 5.08093 75.0489 5.34432 75.5178 5.81317C75.9866 6.28201 76.25 6.91789 76.25 7.58093Z" fill="#C3C6C7"/>
<path d="M18.75 11.3309C19.4404 11.3309 20 10.7713 20 10.0809C20 9.39058 19.4404 8.83093 18.75 8.83093C18.0596 8.83093 17.5 9.39058 17.5 10.0809C17.5 10.7713 18.0596 11.3309 18.75 11.3309Z" fill="#E9EEF2"/>
<path d="M13.75 11.3309C14.4404 11.3309 15 10.7713 15 10.0809C15 9.39058 14.4404 8.83093 13.75 8.83093C13.0596 8.83093 12.5 9.39058 12.5 10.0809C12.5 10.7713 13.0596 11.3309 13.75 11.3309Z" fill="#E9EEF2"/>
<path d="M8.75 11.3309C9.44036 11.3309 10 10.7713 10 10.0809C10 9.39058 9.44036 8.83093 8.75 8.83093C8.05964 8.83093 7.5 9.39058 7.5 10.0809C7.5 10.7713 8.05964 11.3309 8.75 11.3309Z" fill="#E9EEF2"/>
<path d="M20 41.25C19.1244 41.2495 18.2586 41.0653 17.4587 40.7091C16.6588 40.353 15.9425 39.8329 15.3563 39.1825C15.3343 39.1587 15.3129 39.1345 15.2918 39.11C14.5025 38.2059 13.9901 37.0937 13.816 35.9063C13.6419 34.7189 13.8133 33.5064 14.3098 32.4138C14.8064 31.3212 15.607 30.3946 16.616 29.7448C17.625 29.095 18.7997 28.7495 19.9999 28.7495C21.2 28.7495 22.3748 29.095 23.3838 29.7448C24.3928 30.3946 25.1934 31.3212 25.6899 32.4138C26.1864 33.5064 26.3579 34.7189 26.1838 35.9063C26.0096 37.0937 25.4973 38.2059 24.708 39.11C24.6872 39.1348 24.6658 39.1589 24.6438 39.1822C24.0576 39.8327 23.3413 40.3528 22.5414 40.709C21.7415 41.0652 20.8757 41.2495 20 41.25ZM17.1875 37.4805L17.2054 37.5002C17.557 37.8933 17.9876 38.2079 18.4691 38.4233C18.9506 38.6386 19.4721 38.75 19.9996 38.75C20.527 38.75 21.0486 38.6386 21.5301 38.4233C22.0116 38.2079 22.4422 37.8933 22.7938 37.5002C22.7999 37.4933 22.8061 37.4866 22.8124 37.4798C22.8158 37.4758 22.8193 37.4717 22.8207 37.4703C23.2954 36.9282 23.6039 36.2609 23.7093 35.548C23.8146 34.8352 23.7124 34.1071 23.4148 33.4509C23.1172 32.7946 22.6368 32.238 22.0311 31.8477C21.4255 31.4573 20.7201 31.2497 19.9996 31.2497C19.279 31.2497 18.5737 31.4573 17.968 31.8477C17.3623 32.238 16.882 32.7946 16.5844 33.4509C16.2868 34.1071 16.1845 34.8352 16.2899 35.548C16.3952 36.2609 16.7037 36.9282 17.1785 37.4703C17.1819 37.4737 17.1849 37.4772 17.1875 37.4805ZM17.1593 37.4512V37.452V37.4512ZM17.1575 37.4495L17.1586 37.4508L17.1575 37.4495ZM22.8416 37.4495L22.8405 37.4508L22.8416 37.4495Z" fill="#F79539"/>
<path d="M23.75 46.25H16.25C15.9185 46.25 15.6005 46.1183 15.3661 45.8839C15.1317 45.6495 15 45.3315 15 45C15 44.6685 15.1317 44.3505 15.3661 44.1161C15.6005 43.8817 15.9185 43.75 16.25 43.75H23.75C24.0815 43.75 24.3995 43.8817 24.6339 44.1161C24.8683 44.3505 25 44.6685 25 45C25 45.3315 24.8683 45.6495 24.6339 45.8839C24.3995 46.1183 24.0815 46.25 23.75 46.25Z" fill="#C3C6C7"/>
<path d="M20 36.25C20.6904 36.25 21.25 35.6904 21.25 35C21.25 34.3096 20.6904 33.75 20 33.75C19.3096 33.75 18.75 34.3096 18.75 35C18.75 35.6904 19.3096 36.25 20 36.25Z" fill="#AD6643"/>
<path d="M40 41.25C39.1244 41.2495 38.2586 41.0653 37.4587 40.7091C36.6588 40.353 35.9425 39.8329 35.3563 39.1825C35.3343 39.1587 35.3129 39.1345 35.2918 39.11C34.5025 38.2059 33.9901 37.0937 33.816 35.9063C33.6419 34.7189 33.8133 33.5064 34.3098 32.4138C34.8064 31.3212 35.607 30.3946 36.616 29.7448C37.625 29.095 38.7997 28.7495 39.9999 28.7495C41.2 28.7495 42.3748 29.095 43.3838 29.7448C44.3928 30.3946 45.1934 31.3212 45.6899 32.4138C46.1864 33.5064 46.3579 34.7189 46.1838 35.9063C46.0096 37.0937 45.4973 38.2059 44.708 39.11C44.6872 39.1348 44.6658 39.1589 44.6438 39.1822C44.0576 39.8327 43.3413 40.3528 42.5414 40.709C41.7415 41.0652 40.8757 41.2495 40 41.25ZM37.1875 37.4805L37.2054 37.5002C37.5569 37.8933 37.9876 38.2079 38.4691 38.4233C38.9506 38.6386 39.4721 38.75 39.9996 38.75C40.527 38.75 41.0486 38.6386 41.5301 38.4233C42.0116 38.2079 42.4422 37.8933 42.7938 37.5002C42.7999 37.4933 42.8061 37.4866 42.8124 37.4798C42.8158 37.4758 42.8193 37.4717 42.8207 37.4703C43.2954 36.9282 43.6039 36.2609 43.7093 35.548C43.8146 34.8352 43.7124 34.1071 43.4148 33.4509C43.1172 32.7946 42.6368 32.238 42.0311 31.8477C41.4255 31.4573 40.7201 31.2497 39.9996 31.2497C39.279 31.2497 38.5737 31.4573 37.968 31.8477C37.3623 32.238 36.882 32.7946 36.5844 33.4509C36.2868 34.1071 36.1845 34.8352 36.2899 35.548C36.3952 36.2609 36.7037 36.9282 37.1785 37.4703C37.1819 37.4737 37.1849 37.4772 37.1875 37.4805ZM37.1593 37.4512V37.452V37.4512ZM37.1575 37.4495L37.1586 37.4508L37.1575 37.4495ZM42.8416 37.4495L42.8405 37.4508L42.8416 37.4495Z" fill="#F79539"/>
<path d="M43.75 46.25H36.25C35.9185 46.25 35.6005 46.1183 35.3661 45.8839C35.1317 45.6495 35 45.3315 35 45C35 44.6685 35.1317 44.3505 35.3661 44.1161C35.6005 43.8817 35.9185 43.75 36.25 43.75H43.75C44.0815 43.75 44.3995 43.8817 44.6339 44.1161C44.8683 44.3505 45 44.6685 45 45C45 45.3315 44.8683 45.6495 44.6339 45.8839C44.3995 46.1183 44.0815 46.25 43.75 46.25Z" fill="#C3C6C7"/>
<path d="M40 36.25C40.6904 36.25 41.25 35.6904 41.25 35C41.25 34.3096 40.6904 33.75 40 33.75C39.3096 33.75 38.75 34.3096 38.75 35C38.75 35.6904 39.3096 36.25 40 36.25Z" fill="#AD6643"/>
<path d="M60 41.25C59.1244 41.2495 58.2586 41.0653 57.4587 40.7091C56.6588 40.353 55.9425 39.8329 55.3563 39.1825C55.3343 39.1587 55.3128 39.1345 55.2918 39.11C54.5025 38.2059 53.9901 37.0937 53.816 35.9063C53.6419 34.7189 53.8133 33.5064 54.3098 32.4138C54.8064 31.3212 55.607 30.3946 56.616 29.7448C57.625 29.095 58.7997 28.7495 59.9999 28.7495C61.2 28.7495 62.3748 29.095 63.3838 29.7448C64.3928 30.3946 65.1934 31.3212 65.6899 32.4138C66.1864 33.5064 66.3579 34.7189 66.1837 35.9063C66.0096 37.0937 65.4973 38.2059 64.708 39.11C64.6872 39.1348 64.6658 39.1589 64.6438 39.1822C64.0576 39.8327 63.3413 40.3528 62.5414 40.709C61.7415 41.0652 60.8757 41.2495 60 41.25ZM57.1875 37.4805L57.2053 37.5002C57.5569 37.8933 57.9876 38.2079 58.4691 38.4233C58.9506 38.6386 59.4721 38.75 59.9996 38.75C60.527 38.75 61.0486 38.6386 61.5301 38.4233C62.0116 38.2079 62.4422 37.8933 62.7938 37.5002C62.7999 37.4933 62.8061 37.4866 62.8124 37.4798C62.8158 37.4758 62.8192 37.4717 62.8207 37.4703C63.2954 36.9282 63.6039 36.2609 63.7093 35.548C63.8146 34.8352 63.7124 34.1071 63.4148 33.4509C63.1172 32.7946 62.6368 32.238 62.0311 31.8477C61.4254 31.4573 60.7201 31.2497 59.9996 31.2497C59.279 31.2497 58.5737 31.4573 57.968 31.8477C57.3623 32.238 56.882 32.7946 56.5844 33.4509C56.2868 34.1071 56.1845 34.8352 56.2899 35.548C56.3952 36.2609 56.7037 36.9282 57.1785 37.4703C57.1819 37.4737 57.1849 37.4772 57.1875 37.4805ZM57.1593 37.4512V37.452V37.4512ZM57.1575 37.4495L57.1586 37.4508L57.1575 37.4495ZM62.8416 37.4495L62.8405 37.4508L62.8416 37.4495Z" fill="#F79539"/>
<path d="M63.75 46.25H56.25C55.9185 46.25 55.6005 46.1183 55.3661 45.8839C55.1317 45.6495 55 45.3315 55 45C55 44.6685 55.1317 44.3505 55.3661 44.1161C55.6005 43.8817 55.9185 43.75 56.25 43.75H63.75C64.0815 43.75 64.3995 43.8817 64.6339 44.1161C64.8683 44.3505 65 44.6685 65 45C65 45.3315 64.8683 45.6495 64.6339 45.8839C64.3995 46.1183 64.0815 46.25 63.75 46.25Z" fill="#C3C6C7"/>
<path d="M60 36.25C60.6904 36.25 61.25 35.6904 61.25 35C61.25 34.3096 60.6904 33.75 60 33.75C59.3096 33.75 58.75 34.3096 58.75 35C58.75 35.6904 59.3096 36.25 60 36.25Z" fill="#AD6643"/>
<path d="M20 63.75C19.1244 63.7495 18.2586 63.5653 17.4587 63.2091C16.6588 62.853 15.9425 62.3329 15.3563 61.6825C15.3343 61.6587 15.3129 61.6345 15.2918 61.61C14.5025 60.7059 13.9901 59.5937 13.816 58.4063C13.6419 57.2189 13.8133 56.0064 14.3098 54.9138C14.8064 53.8212 15.607 52.8946 16.616 52.2448C17.625 51.595 18.7997 51.2495 19.9999 51.2495C21.2 51.2495 22.3748 51.595 23.3838 52.2448C24.3928 52.8946 25.1934 53.8212 25.6899 54.9138C26.1864 56.0064 26.3579 57.2189 26.1838 58.4063C26.0096 59.5937 25.4973 60.7059 24.708 61.61C24.6872 61.6348 24.6658 61.6588 24.6438 61.6822C24.0576 62.3327 23.3413 62.8528 22.5414 63.209C21.7415 63.5652 20.8757 63.7495 20 63.75ZM17.1875 59.9805L17.2054 60.0002C17.557 60.3933 17.9876 60.7079 18.4691 60.9233C18.9506 61.1386 19.4721 61.25 19.9996 61.25C20.527 61.25 21.0486 61.1386 21.5301 60.9233C22.0116 60.7079 22.4422 60.3933 22.7938 60.0002C22.7999 59.9933 22.8061 59.9866 22.8124 59.9798C22.8158 59.9758 22.8193 59.9717 22.8207 59.9703C23.2954 59.4282 23.6039 58.7608 23.7093 58.048C23.8146 57.3352 23.7124 56.6071 23.4148 55.9509C23.1172 55.2946 22.6368 54.738 22.0311 54.3477C21.4255 53.9573 20.7201 53.7497 19.9996 53.7497C19.279 53.7497 18.5737 53.9573 17.968 54.3477C17.3623 54.738 16.882 55.2946 16.5844 55.9509C16.2868 56.6071 16.1845 57.3352 16.2899 58.048C16.3952 58.7608 16.7037 59.4282 17.1785 59.9703C17.1819 59.9737 17.1849 59.9772 17.1875 59.9805ZM17.1575 59.9495L17.1586 59.9508L17.1575 59.9495ZM22.8416 59.9495L22.8405 59.9508L22.8416 59.9495Z" fill="#F79539"/>
<path d="M23.75 68.75H16.25C15.9185 68.75 15.6005 68.6183 15.3661 68.3839C15.1317 68.1495 15 67.8315 15 67.5C15 67.1685 15.1317 66.8505 15.3661 66.6161C15.6005 66.3817 15.9185 66.25 16.25 66.25H23.75C24.0815 66.25 24.3995 66.3817 24.6339 66.6161C24.8683 66.8505 25 67.1685 25 67.5C25 67.8315 24.8683 68.1495 24.6339 68.3839C24.3995 68.6183 24.0815 68.75 23.75 68.75Z" fill="#C3C6C7"/>
<path d="M20 58.75C20.6904 58.75 21.25 58.1904 21.25 57.5C21.25 56.8096 20.6904 56.25 20 56.25C19.3096 56.25 18.75 56.8096 18.75 57.5C18.75 58.1904 19.3096 58.75 20 58.75Z" fill="#AD6643"/>
<path d="M40 63.75C39.1244 63.7495 38.2586 63.5653 37.4587 63.2091C36.6588 62.853 35.9425 62.3329 35.3563 61.6825C35.3343 61.6587 35.3129 61.6345 35.2918 61.61C34.5025 60.7059 33.9901 59.5937 33.816 58.4063C33.6419 57.2189 33.8133 56.0064 34.3098 54.9138C34.8064 53.8212 35.607 52.8946 36.616 52.2448C37.625 51.595 38.7997 51.2495 39.9999 51.2495C41.2 51.2495 42.3748 51.595 43.3838 52.2448C44.3928 52.8946 45.1934 53.8212 45.6899 54.9138C46.1864 56.0064 46.3579 57.2189 46.1838 58.4063C46.0096 59.5937 45.4973 60.7059 44.708 61.61C44.6872 61.6348 44.6658 61.6588 44.6438 61.6822C44.0576 62.3327 43.3413 62.8528 42.5414 63.209C41.7415 63.5652 40.8757 63.7495 40 63.75ZM37.1875 59.9805L37.2054 60.0002C37.5569 60.3933 37.9876 60.7079 38.4691 60.9233C38.9506 61.1386 39.4721 61.25 39.9996 61.25C40.527 61.25 41.0486 61.1386 41.5301 60.9233C42.0116 60.7079 42.4422 60.3933 42.7938 60.0002C42.7999 59.9933 42.8061 59.9866 42.8124 59.9798C42.8158 59.9758 42.8193 59.9717 42.8207 59.9703C43.2954 59.4282 43.6039 58.7608 43.7093 58.048C43.8146 57.3352 43.7124 56.6071 43.4148 55.9509C43.1172 55.2946 42.6368 54.738 42.0311 54.3477C41.4255 53.9573 40.7201 53.7497 39.9996 53.7497C39.279 53.7497 38.5737 53.9573 37.968 54.3477C37.3623 54.738 36.882 55.2946 36.5844 55.9509C36.2868 56.6071 36.1845 57.3352 36.2899 58.048C36.3952 58.7608 36.7037 59.4282 37.1785 59.9703C37.1819 59.9737 37.1849 59.9772 37.1875 59.9805ZM37.1575 59.9495L37.1586 59.9508L37.1575 59.9495ZM42.8416 59.9495L42.8405 59.9508L42.8416 59.9495Z" fill="#F79539"/>
<path d="M43.75 68.75H36.25C35.9185 68.75 35.6005 68.6183 35.3661 68.3839C35.1317 68.1495 35 67.8315 35 67.5C35 67.1685 35.1317 66.8505 35.3661 66.6161C35.6005 66.3817 35.9185 66.25 36.25 66.25H43.75C44.0815 66.25 44.3995 66.3817 44.6339 66.6161C44.8683 66.8505 45 67.1685 45 67.5C45 67.8315 44.8683 68.1495 44.6339 68.3839C44.3995 68.6183 44.0815 68.75 43.75 68.75Z" fill="#C3C6C7"/>
<path d="M40 58.75C40.6904 58.75 41.25 58.1904 41.25 57.5C41.25 56.8096 40.6904 56.25 40 56.25C39.3096 56.25 38.75 56.8096 38.75 57.5C38.75 58.1904 39.3096 58.75 40 58.75Z" fill="#AD6643"/>
<path d="M60 63.75C59.1244 63.7495 58.2586 63.5653 57.4587 63.2091C56.6588 62.853 55.9425 62.3329 55.3563 61.6825C55.3343 61.6587 55.3128 61.6345 55.2918 61.61C54.5025 60.7059 53.9901 59.5937 53.816 58.4063C53.6419 57.2189 53.8133 56.0064 54.3098 54.9138C54.8064 53.8212 55.607 52.8946 56.616 52.2448C57.625 51.595 58.7997 51.2495 59.9999 51.2495C61.2 51.2495 62.3748 51.595 63.3838 52.2448C64.3928 52.8946 65.1934 53.8212 65.6899 54.9138C66.1864 56.0064 66.3579 57.2189 66.1837 58.4063C66.0096 59.5937 65.4973 60.7059 64.708 61.61C64.6872 61.6348 64.6658 61.6588 64.6438 61.6822C64.0576 62.3327 63.3413 62.8528 62.5414 63.209C61.7415 63.5652 60.8757 63.7495 60 63.75ZM57.1875 59.9805L57.2053 60.0002C57.5569 60.3933 57.9876 60.7079 58.4691 60.9233C58.9506 61.1386 59.4721 61.25 59.9996 61.25C60.527 61.25 61.0486 61.1386 61.5301 60.9233C62.0116 60.7079 62.4422 60.3933 62.7938 60.0002C62.7999 59.9933 62.8061 59.9866 62.8124 59.9798C62.8158 59.9758 62.8192 59.9717 62.8207 59.9703C63.2954 59.4282 63.6039 58.7608 63.7093 58.048C63.8146 57.3352 63.7124 56.6071 63.4148 55.9509C63.1172 55.2946 62.6368 54.738 62.0311 54.3477C61.4254 53.9573 60.7201 53.7497 59.9996 53.7497C59.279 53.7497 58.5737 53.9573 57.968 54.3477C57.3623 54.738 56.882 55.2946 56.5844 55.9509C56.2868 56.6071 56.1845 57.3352 56.2899 58.048C56.3952 58.7608 56.7037 59.4282 57.1785 59.9703C57.1819 59.9737 57.1849 59.9772 57.1875 59.9805ZM57.1575 59.9495L57.1586 59.9508L57.1575 59.9495ZM62.8416 59.9495L62.8405 59.9508L62.8416 59.9495Z" fill="#F79539"/>
<path d="M63.75 68.75H56.25C55.9185 68.75 55.6005 68.6183 55.3661 68.3839C55.1317 68.1495 55 67.8315 55 67.5C55 67.1685 55.1317 66.8505 55.3661 66.6161C55.6005 66.3817 55.9185 66.25 56.25 66.25H63.75C64.0815 66.25 64.3995 66.3817 64.6339 66.6161C64.8683 66.8505 65 67.1685 65 67.5C65 67.8315 64.8683 68.1495 64.6339 68.3839C64.3995 68.6183 64.0815 68.75 63.75 68.75Z" fill="#C3C6C7"/>
<path d="M60 58.75C60.6904 58.75 61.25 58.1904 61.25 57.5C61.25 56.8096 60.6904 56.25 60 56.25C59.3096 56.25 58.75 56.8096 58.75 57.5C58.75 58.1904 59.3096 58.75 60 58.75Z" fill="#AD6643"/>
<path d="M47.5 23.75H32.5C32.1685 23.75 31.8505 23.6183 31.6161 23.3839C31.3817 23.1495 31.25 22.8315 31.25 22.5C31.25 22.1685 31.3817 21.8505 31.6161 21.6161C31.8505 21.3817 32.1685 21.25 32.5 21.25H47.5C47.8315 21.25 48.1495 21.3817 48.3839 21.6161C48.6183 21.8505 48.75 22.1685 48.75 22.5C48.75 22.8315 48.6183 23.1495 48.3839 23.3839C48.1495 23.6183 47.8315 23.75 47.5 23.75Z" fill="#C3C6C7"/>
</svg>
