<svg width="26" height="26" viewBox="0 0 26 26" fill="none" xmlns="http://www.w3.org/2000/svg">
<path d="M24.0267 11.247L23.9119 10.76H13.3271V15.24H19.6514C18.9948 18.3579 15.9479 19.9992 13.4591 19.9992C11.6482 19.9992 9.73937 19.2375 8.47594 18.0131C7.80935 17.3568 7.27875 16.5755 6.91451 15.7139C6.55028 14.8523 6.35956 13.9273 6.35328 12.9919C6.35328 11.1048 7.20133 9.2173 8.43531 7.9757C9.6693 6.7341 11.533 6.03941 13.386 6.03941C15.5081 6.03941 17.029 7.16625 17.5978 7.68016L20.7812 4.51344C19.8474 3.69281 17.2819 1.625 13.2834 1.625C10.1984 1.625 7.24043 2.80668 5.07816 4.96184C2.94434 7.08398 1.83984 10.1527 1.83984 13C1.83984 15.8473 2.88492 18.7627 4.95273 20.9016C7.16223 23.1827 10.2914 24.375 13.5134 24.375C16.445 24.375 19.2238 23.2263 21.2043 21.1423C23.1512 19.0907 24.1582 16.252 24.1582 13.2762C24.1582 12.0235 24.0323 11.2795 24.0267 11.247Z" fill="#EE2625"/>
</svg>
