<svg id="Layer_1" height="512" viewBox="0 0 512 512" width="512" xmlns="http://www.w3.org/2000/svg" data-name="Layer 1"><path d="m334 418.114c0-39.151 30.724-71.537 70.292-76.269a84.136 84.136 0 0 0 -10-.617c-44.273 0-80.292 34.491-80.292 76.886s36.019 76.886 80.292 76.886a83.925 83.925 0 0 0 10-.618c-39.568-4.731-70.292-37.118-70.292-76.268z" fill="#d4e1f4"/><g fill="#0635c9"><path d="m393.137 5h-341.296a26.375 26.375 0 0 0 -26.425 26.265v431.416a26.376 26.376 0 0 0 26.425 26.265h288.683v-12h-288.683a14.362 14.362 0 0 1 -14.425-14.265v-431.416a14.362 14.362 0 0 1 14.425-14.265h341.3a14.362 14.362 0 0 1 14.424 14.265v306.035h12v-306.035a26.374 26.374 0 0 0 -26.428-26.265z"/><path d="m65.173 61.9h163.4a6 6 0 0 0 0-12h-163.4a6 6 0 0 0 0 12z"/><path d="m219.4 413.906h-163.4a6 6 0 0 0 0 12h163.4a6 6 0 0 0 0-12z"/><path d="m219.4 368.405h-163.4a6 6 0 0 0 0 12h163.4a6 6 0 1 0 0-12z"/><path d="m386.442 95.4h-326.792a6 6 0 0 0 0 12h326.792a6 6 0 0 0 0-12z"/><path d="m386.442 140.9h-326.792a6 6 0 0 0 0 12h326.792a6 6 0 0 0 0-12z"/><path d="m386.442 186.4h-326.792a6 6 0 0 0 0 12h326.792a6 6 0 0 0 0-12z"/><path d="m386.442 231.9h-326.792a6 6 0 1 0 0 12h326.792a6 6 0 0 0 0-12z"/><path d="m386.442 277.4h-326.792a6 6 0 1 0 0 12h326.792a6 6 0 0 0 0-12z"/><path d="m314 328.9a6 6 0 0 0 -6-6h-248.35a6 6 0 1 0 0 12h248.35a6 6 0 0 0 6-6z"/></g><path d="m394.292 329.228c-50.892 0-92.292 39.872-92.292 88.886s41.4 88.886 92.292 88.886 92.291-39.874 92.291-88.886-41.401-88.886-92.291-88.886zm0 165.772c-44.273 0-80.292-34.491-80.292-76.886s36.019-76.886 80.292-76.886 80.291 34.491 80.291 76.886-36.018 76.886-80.291 76.886z" fill="#1ae5be"/><path d="m426.405 402.093h-.754v-9.17c0-11.812-8.687-21.421-19.363-21.421h-22.825c-10.676 0-19.363 9.609-19.363 21.421v9.17h-.755a8.009 8.009 0 0 0 -8 8v49.145a8.009 8.009 0 0 0 8 8h63.06a8.009 8.009 0 0 0 8-8v-49.145a8.009 8.009 0 0 0 -8-8zm-50.3-9.17c0-5.106 3.372-9.421 7.363-9.421h22.825c3.991 0 7.363 4.315 7.363 9.421v9.17h-37.556zm46.3 62.315h-55.06v-41.145h55.06z" fill="#1ae5be"/><path d="m390.874 445.314a6 6 0 1 0 12 0v-6.176a7.836 7.836 0 0 0 2-5.221 8 8 0 0 0 -16 0 7.836 7.836 0 0 0 2 5.22z" fill="#1ae5be"/></svg>