<svg width="15" height="14" viewBox="0 0 15 14" fill="none" xmlns="http://www.w3.org/2000/svg">
<path d="M7.57922 1.31254C4.38054 1.26934 1.76921 3.88067 1.81242 7.07934C1.85507 10.147 4.35293 12.6449 7.42062 12.6875C10.6198 12.7313 13.2306 10.12 13.1869 6.92129C13.1448 3.85305 10.6469 1.3552 7.57922 1.31254ZM11.036 10.2608C11.0251 10.2726 11.0118 10.2818 10.9969 10.2878C10.982 10.2939 10.966 10.2966 10.95 10.2958C10.934 10.2949 10.9184 10.2906 10.9042 10.283C10.89 10.2755 10.8777 10.2649 10.8681 10.252C10.6235 9.93204 10.324 9.65808 9.98355 9.44293C9.28738 8.99613 8.40527 8.75004 7.49992 8.75004C6.59457 8.75004 5.71246 8.99613 5.01629 9.44293C4.67582 9.65798 4.3763 9.93185 4.13172 10.2518C4.12211 10.2646 4.10979 10.2752 4.09564 10.2827C4.08148 10.2903 4.06584 10.2946 4.04982 10.2955C4.0338 10.2963 4.01779 10.2936 4.00293 10.2876C3.98807 10.2815 3.97472 10.2723 3.96382 10.2605C3.16147 9.39436 2.70697 8.26258 2.68742 7.08207C2.64285 4.42125 4.82625 2.1941 7.48816 2.18754C10.1501 2.18098 12.3124 4.3425 12.3124 7.00004C12.3133 8.20902 11.8574 9.3737 11.036 10.2608Z" fill="#202020"/>
<path d="M7.49994 3.9375C6.96072 3.9375 6.47318 4.13957 6.12673 4.5068C5.78029 4.87402 5.6072 5.3818 5.6463 5.92676C5.7256 7 6.55712 7.875 7.49994 7.875C8.44275 7.875 9.27263 7 9.35357 5.92703C9.39404 5.38727 9.22232 4.88414 8.87013 4.51008C8.52232 4.14094 8.0356 3.9375 7.49994 3.9375Z" fill="#202020"/>
</svg>
