<svg width="203" height="35" viewBox="0 0 203 35" fill="none" xmlns="http://www.w3.org/2000/svg">
<path d="M200.812 14.2188H189.055L185.5 3.28125L181.945 14.2188H170.188L179.758 20.7812L176.066 31.7188L185.5 24.8828L194.934 31.7188L191.242 20.7812L200.812 14.2188Z" fill="#EE2625" stroke="#EE2625" stroke-width="2" stroke-linejoin="round"/>
<path d="M116.812 14.2188H105.055L101.5 3.28125L97.9453 14.2188H86.1875L95.7578 20.7812L92.0664 31.7188L101.5 24.8828L110.934 31.7188L107.242 20.7812L116.812 14.2188Z" fill="#EE2625" stroke="#EE2625" stroke-width="2" stroke-linejoin="round"/>
<path d="M158.812 14.2188H147.055L143.5 3.28125L139.945 14.2188H128.188L137.758 20.7812L134.066 31.7188L143.5 24.8828L152.934 31.7188L149.242 20.7812L158.812 14.2188Z" fill="#EE2625" stroke="#EE2625" stroke-width="2" stroke-linejoin="round"/>
<path d="M32.8125 14.2188H21.0547L17.5 3.28125L13.9453 14.2188H2.1875L11.7578 20.7812L8.06641 31.7188L17.5 24.8828L26.9336 31.7188L23.2422 20.7812L32.8125 14.2188Z" fill="#EE2625" stroke="#EE2625" stroke-width="2" stroke-linejoin="round"/>
<path d="M74.8125 14.2188H63.0547L59.5 3.28125L55.9453 14.2188H44.1875L53.7578 20.7812L50.0664 31.7188L59.5 24.8828L68.9336 31.7188L65.2422 20.7812L74.8125 14.2188Z" fill="#EE2625" stroke="#EE2625" stroke-width="2" stroke-linejoin="round"/>
</svg>
