<svg width="53" height="53" viewBox="0 0 53 53" fill="none" xmlns="http://www.w3.org/2000/svg">
<g clip-path="url(#clip0)">
<path d="M52.4933 14.7199L35.7335 8.33029C35.3271 8.17542 34.8722 8.37921 34.7174 8.78519C34.5625 9.19157 34.7663 9.64647 35.1727 9.80134L50.0033 15.4555L39.7367 19.3701L26.8247 13.5239C26.4284 13.3443 25.9622 13.5202 25.7831 13.9161C25.6035 14.3124 25.7794 14.7786 26.1753 14.9581L37.6643 20.1602L26.5 24.4165L2.9967 15.4555L26.5 6.4945L32.292 8.7031C32.6976 8.85757 33.1529 8.65418 33.3082 8.2478C33.463 7.84182 33.2592 7.38692 32.8529 7.23205L26.7806 4.9167C26.5999 4.84796 26.4001 4.84755 26.2194 4.9167L0.50666 14.7199C0.201775 14.8364 0 15.1292 0 15.4555V19.0502C0 19.3765 0.201775 19.6693 0.50666 19.7857L8.536 22.8467V25.5745C8.536 26.0092 8.88819 26.3618 9.32288 26.3618C9.75797 26.3618 10.1102 26.0092 10.1102 25.5745V23.4472L26.2194 29.589C26.31 29.6234 26.405 29.6408 26.5 29.6408C26.595 29.6408 26.69 29.6234 26.7806 29.589L38.9235 24.9595V37.417C35.1112 39.4181 30.8363 40.4905 26.5 40.4905C20.5818 40.4905 14.7769 38.4954 10.1102 34.8647V28.7233C10.1102 28.2886 9.75797 27.936 9.32288 27.936C8.88819 27.936 8.536 28.2886 8.536 28.7233V35.246C8.536 35.4849 8.64436 35.711 8.83077 35.8602C13.825 39.8613 20.1002 42.0647 26.5 42.0647C30.8161 42.0647 35.0748 41.061 38.9235 39.1812V42.3671C37.655 42.7136 36.7197 43.8754 36.7197 45.2522C36.7197 46.9012 38.0614 48.2432 39.7104 48.2432C41.3597 48.2432 42.7014 46.9012 42.7014 45.2522C42.7014 43.8754 41.7661 42.7136 40.4977 42.3671V38.3498C41.7807 37.6199 43.0099 36.7894 44.1696 35.8602C44.356 35.711 44.4648 35.4849 44.4648 35.246V22.8463L52.4933 19.7853C52.7982 19.6693 53 19.3765 53 19.0498V15.4555C53 15.1292 52.7982 14.8364 52.4933 14.7199ZM41.1272 45.2522C41.1272 46.033 40.4916 46.6687 39.7104 46.6687C38.9296 46.6687 38.2939 46.033 38.2939 45.2522C38.2939 44.471 38.9296 43.8353 39.7104 43.8353C40.4916 43.8353 41.1272 44.471 41.1272 45.2522ZM1.57417 16.5982L25.7127 25.8014V27.7108L1.57417 18.5076V16.5982ZM27.2873 27.7108V25.8014L38.9235 21.3648V23.2745L27.2873 27.7108ZM42.8902 34.8643C42.1224 35.4619 41.323 36.0142 40.4977 36.5213V24.359L42.8902 23.4468V34.8643ZM40.4977 22.6741V20.7647L51.4258 16.5982V18.5076L40.4977 22.6741Z" fill="#F7F7F7"/>
</g>
<defs>
<clipPath id="clip0">
<rect width="53" height="53" fill="white"/>
</clipPath>
</defs>
</svg>
