<svg width="51" height="50" viewBox="0 0 51 50" fill="none" xmlns="http://www.w3.org/2000/svg">
<path d="M42.4606 11.8151C38.1482 7.52848 32.3387 5.08556 26.2588 5.0022C20.1789 4.91885 14.3046 7.2016 9.87632 11.3684C5.44803 15.5352 2.81242 21.2599 2.52603 27.3336C2.23965 33.4073 4.32491 39.3546 8.34148 43.9196L8.35906 43.9391C8.39128 43.9733 8.42156 44.0085 8.45671 44.0417C8.52898 44.1237 8.61101 44.2165 8.70769 44.3132C9.08684 44.7162 9.5451 45.0366 10.0538 45.2543C10.5625 45.472 11.1106 45.5824 11.6639 45.5786C12.2172 45.5747 12.7638 45.4567 13.2694 45.2319C13.775 45.0071 14.2287 44.6804 14.6022 44.2721C16.0394 42.7102 17.785 41.4634 19.7286 40.6106C21.6723 39.7577 23.7717 39.3174 25.8942 39.3174C28.0167 39.3174 30.1162 39.7577 32.0598 40.6106C34.0035 41.4634 35.749 42.7102 37.1862 44.2721C37.5625 44.6825 38.0199 45.0103 38.5294 45.2347C39.039 45.4591 39.5896 45.5753 40.1463 45.5758C40.7031 45.5764 41.2539 45.4613 41.7639 45.2379C42.2739 45.0145 42.732 44.6876 43.1091 44.278L43.4225 43.9362L43.4401 43.9167C47.3977 39.4478 49.5003 33.6369 49.3189 27.6703C49.1374 21.7037 46.6854 16.0313 42.4636 11.8112L42.4606 11.8151ZM24.3259 12.7673C24.3259 12.3529 24.4905 11.9554 24.7835 11.6624C25.0765 11.3694 25.474 11.2048 25.8884 11.2048C26.3028 11.2048 26.7002 11.3694 26.9932 11.6624C27.2862 11.9554 27.4509 12.3529 27.4509 12.7673V15.8923C27.4509 16.3067 27.2862 16.7041 26.9932 16.9971C26.7002 17.2901 26.3028 17.4548 25.8884 17.4548C25.474 17.4548 25.0765 17.2901 24.7835 16.9971C24.4905 16.7041 24.3259 16.3067 24.3259 15.8923V12.7673ZM13.3884 29.9548H10.2634C9.84895 29.9548 9.45153 29.7901 9.1585 29.4971C8.86547 29.2041 8.70085 28.8067 8.70085 28.3923C8.70085 27.9779 8.86547 27.5804 9.1585 27.2874C9.45153 26.9944 9.84895 26.8298 10.2634 26.8298H13.3884C13.8028 26.8298 14.2002 26.9944 14.4932 27.2874C14.7862 27.5804 14.9509 27.9779 14.9509 28.3923C14.9509 28.8067 14.7862 29.2041 14.4932 29.4971C14.2002 29.7901 13.8028 29.9548 13.3884 29.9548ZM18.154 20.6579C17.861 20.9507 17.4637 21.1152 17.0495 21.1152C16.6353 21.1152 16.238 20.9507 15.945 20.6579L13.735 18.4489C13.442 18.1558 13.2773 17.7584 13.2773 17.3439C13.2773 16.9295 13.442 16.532 13.735 16.2389C14.0281 15.9459 14.4256 15.7812 14.84 15.7812C15.2545 15.7812 15.6519 15.9459 15.945 16.2389L18.154 18.4489C18.4468 18.7419 18.6113 19.1392 18.6113 19.5534C18.6113 19.9676 18.4468 20.3649 18.154 20.6579ZM32.7341 22.9137L28.0954 30.2868C27.9056 30.5498 27.6748 30.7806 27.4118 30.9704C26.7768 31.4133 25.9928 31.588 25.2299 31.4565C24.467 31.325 23.7867 30.8979 23.3367 30.2679C22.8867 29.6379 22.7033 28.8559 22.8263 28.0915C22.9494 27.3272 23.3689 26.6422 23.9938 26.1852L31.3669 21.5466C31.5345 21.4297 31.7339 21.3671 31.9382 21.3671C32.1425 21.3671 32.3418 21.4297 32.5094 21.5466C32.7199 21.6985 32.8617 21.9276 32.9038 22.1838C32.9459 22.44 32.8849 22.7024 32.7341 22.9137ZM35.8317 20.6579C35.5363 20.9385 35.1429 21.0927 34.7355 21.0875C34.3281 21.0823 33.9388 20.9181 33.6507 20.63C33.3625 20.3418 33.1984 19.9526 33.1931 19.5451C33.1879 19.1377 33.3421 18.7443 33.6227 18.4489L35.8317 16.2389C36.1248 15.9459 36.5222 15.7812 36.9367 15.7812C37.3511 15.7812 37.7486 15.9459 38.0417 16.2389C38.3347 16.532 38.4994 16.9295 38.4994 17.3439C38.4994 17.7584 38.3347 18.1558 38.0417 18.4489L35.8317 20.6579ZM41.5134 29.9548H38.3884C37.974 29.9548 37.5765 29.7901 37.2835 29.4971C36.9905 29.2041 36.8259 28.8067 36.8259 28.3923C36.8259 27.9779 36.9905 27.5804 37.2835 27.2874C37.5765 26.9944 37.974 26.8298 38.3884 26.8298H41.5134C41.9278 26.8298 42.3252 26.9944 42.6182 27.2874C42.9112 27.5804 43.0759 27.9779 43.0759 28.3923C43.0759 28.8067 42.9112 29.2041 42.6182 29.4971C42.3252 29.7901 41.9278 29.9548 41.5134 29.9548Z" fill="#EE2625"/>
</svg>
