<svg width="14" height="14" viewBox="0 0 14 14" fill="none" xmlns="http://www.w3.org/2000/svg">
<path d="M7.07927 1.31254C3.8806 1.26934 1.26927 3.88067 1.31247 7.07934C1.35513 10.147 3.85298 12.6449 6.92068 12.6875C10.1199 12.7313 12.7307 10.12 12.6869 6.92129C12.6448 3.85305 10.147 1.3552 7.07927 1.31254ZM10.5361 10.2608C10.5252 10.2726 10.5118 10.2818 10.497 10.2878C10.4821 10.2939 10.4661 10.2966 10.4501 10.2958C10.434 10.2949 10.4184 10.2906 10.4043 10.283C10.3901 10.2755 10.3778 10.2649 10.3682 10.252C10.1236 9.93204 9.82408 9.65808 9.4836 9.44293C8.78743 8.99613 7.90532 8.75004 6.99997 8.75004C6.09462 8.75004 5.21251 8.99613 4.51634 9.44293C4.17587 9.65798 3.87636 9.93185 3.63177 10.2518C3.62216 10.2646 3.60984 10.2752 3.59569 10.2827C3.58154 10.2903 3.56589 10.2946 3.54987 10.2955C3.53385 10.2963 3.51784 10.2936 3.50298 10.2876C3.48812 10.2815 3.47477 10.2723 3.46388 10.2605C2.66152 9.39436 2.20702 8.26258 2.18747 7.08207C2.1429 4.42125 4.3263 2.1941 6.98821 2.18754C9.65013 2.18098 11.8125 4.3425 11.8125 7.00004C11.8134 8.20902 11.3575 9.3737 10.5361 10.2608Z" fill="#F7F7F7"/>
<path d="M7 3.9375C6.46078 3.9375 5.97324 4.13957 5.62679 4.5068C5.28035 4.87402 5.10726 5.3818 5.14637 5.92676C5.22566 7 6.05719 7.875 7 7.875C7.94281 7.875 8.77269 7 8.85363 5.92703C8.8941 5.38727 8.72238 4.88414 8.37019 4.51008C8.02238 4.14094 7.53566 3.9375 7 3.9375Z" fill="#F7F7F7"/>
</svg>
